<?xml version="1.0" encoding="utf-8"?>
<svg version="1.1" xmlns:xlink="http://www.w3.org/1999/xlink" width="21px" height="17px" xmlns="http://www.w3.org/2000/svg">
  <g transform="matrix(1 0 0 1 -485 -255 )">
    <path d="M 10.40771484375 9.800455729166666  C 10.46923828125 10.195203993055555  10.5 10.62868923611111  10.5 11.100911458333334  C 10.5 11.573133680555555  10.37353515625 11.966037326388886  10.12060546875 12.279622395833334  C 9.86767578125 12.593207465277775  9.556640625 12.75  9.1875 12.75  L 3.9375 12.75  C 3.568359375 12.75  3.25732421875 12.593207465277775  3.00439453125 12.279622395833334  C 2.7514648437500004 11.966037326388886  2.625 11.573133680555555  2.625 11.100911458333334  C 2.625 10.62868923611111  2.65576171875 10.195203993055555  2.71728515625 9.800455729166666  C 2.77880859375 9.405707465277775  2.8796386718750004 9.025716145833334  3.019775390625 8.660481770833334  C 3.159912109375 8.295247395833332  3.3666992187500004 8.007486979166668  3.64013671875 7.797200520833333  C 3.91357421875 7.5869140625  4.2451171875 7.481770833333333  4.634765625 7.481770833333333  C 4.67578125 7.511284722222222  4.7783203125 7.577690972222222  4.9423828125 7.680989583333333  C 5.1064453125 7.784288194444443  5.234619140625 7.863606770833333  5.326904296875 7.9189453125  C 5.419189453125 7.974283854166667  5.54052734375 8.03884548611111  5.69091796875 8.112630208333332  C 5.841308593750001 8.186414930555555  5.98828125 8.239908854166668  6.1318359375 8.273111979166668  C 6.275390625 8.306315104166668  6.4189453125 8.322916666666668  6.5625 8.322916666666668  C 6.7060546875 8.322916666666668  6.849609375 8.306315104166668  6.9931640625 8.273111979166668  C 7.13671875 8.239908854166668  7.28369140625 8.186414930555555  7.43408203125 8.112630208333332  C 7.584472656250001 8.03884548611111  7.705810546875 7.974283854166667  7.798095703125 7.9189453125  C 7.890380859375001 7.863606770833333  8.018554687500002 7.784288194444443  8.1826171875 7.680989583333333  C 8.346679687500002 7.577690972222222  8.449218750000002 7.511284722222222  8.490234375 7.481770833333333  C 8.879882812500002 7.481770833333333  9.211425781250002 7.5869140625  9.48486328125 7.797200520833333  C 9.75830078125 8.007486979166668  9.965087890625 8.295247395833332  10.105224609375 8.660481770833334  C 10.245361328125 9.025716145833334  10.34619140625 9.405707465277775  10.40771484375 9.800455729166666  Z M 8.208251953125 3.5693359375  C 8.662841796875002 4.060004340277778  8.890136718750002 4.652126736111111  8.89013671875 5.345703125  C 8.890136718750002 6.0392795138888875  8.662841796875002 6.6314019097222205  8.208251953125 7.1220703125  C 7.753662109375001 7.612738715277778  7.205078125000001 7.858072916666667  6.5625 7.858072916666667  C 5.919921875 7.858072916666667  5.371337890625 7.612738715277778  4.916748046875 7.1220703125  C 4.462158203125 6.6314019097222205  4.23486328125 6.0392795138888875  4.23486328125 5.345703125  C 4.23486328125 4.652126736111111  4.462158203125 4.060004340277778  4.916748046875 3.5693359375  C 5.371337890625 3.0786675347222205  5.919921875 2.8333333333333326  6.5625 2.8333333333333326  C 7.205078125000001 2.8333333333333326  7.753662109375001 3.0786675347222205  8.208251953125 3.5693359375  Z M 18.28271484375 10.016276041666666  C 18.34423828125 10.082682291666666  18.375 10.167534722222221  18.375 10.270833333333334  L 18.375 10.979166666666666  C 18.375 11.082465277777775  18.34423828125 11.167317708333334  18.28271484375 11.233723958333334  C 18.22119140625 11.300130208333334  18.142578125 11.333333333333334  18.046875 11.333333333333334  L 12.140625 11.333333333333334  C 12.044921875 11.333333333333334  11.96630859375 11.300130208333334  11.90478515625 11.233723958333334  C 11.84326171875 11.167317708333334  11.8125 11.082465277777775  11.8125 10.979166666666666  L 11.8125 10.270833333333334  C 11.8125 10.167534722222221  11.84326171875 10.082682291666666  11.90478515625 10.016276041666666  C 11.96630859375 9.949869791666666  12.044921875 9.916666666666666  12.140625 9.916666666666666  L 18.046875 9.916666666666666  C 18.142578125 9.916666666666666  18.22119140625 9.949869791666666  18.28271484375 10.016276041666666  Z M 18.267333984375 7.199544270833333  C 18.339111328125 7.277018229166667  18.375 7.37109375  18.375 7.481770833333333  L 18.375 8.1015625  C 18.375 8.212239583333332  18.339111328125 8.306315104166668  18.267333984375 8.3837890625  C 18.195556640625 8.461263020833332  18.1083984375 8.5  18.005859375 8.5  L 12.181640625 8.5  C 12.0791015625 8.5  11.991943359375 8.461263020833332  11.920166015625 8.3837890625  C 11.848388671875 8.306315104166668  11.8125 8.212239583333332  11.8125 8.1015625  L 11.8125 7.481770833333333  C 11.8125 7.37109375  11.848388671875 7.277018229166667  11.920166015625 7.199544270833333  C 11.991943359375 7.1220703125  12.0791015625 7.083333333333333  12.181640625 7.083333333333333  L 18.005859375 7.083333333333333  C 18.1083984375 7.083333333333333  18.195556640625 7.1220703125  18.267333984375 7.199544270833333  Z M 18.28271484375 4.349609375  C 18.34423828125 4.416015625  18.375 4.500868055555554  18.375 4.604166666666667  L 18.375 5.3125  C 18.375 5.415798611111111  18.34423828125 5.500651041666667  18.28271484375 5.567057291666667  C 18.22119140625 5.633463541666667  18.142578125 5.666666666666667  18.046875 5.666666666666667  L 12.140625 5.666666666666667  C 12.044921875 5.666666666666667  11.96630859375 5.633463541666667  11.90478515625 5.567057291666667  C 11.84326171875 5.500651041666667  11.8125 5.415798611111111  11.8125 5.3125  L 11.8125 4.604166666666667  C 11.8125 4.500868055555554  11.84326171875 4.416015625  11.90478515625 4.349609375  C 11.96630859375 4.283203125  12.044921875 4.25  12.140625 4.25  L 18.046875 4.25  C 18.142578125 4.25  18.22119140625 4.283203125  18.28271484375 4.349609375  Z M 19.590087890625 15.478190104166668  C 19.655029296875 15.408094618055557  19.687500000000004 15.325086805555557  19.6875 15.229166666666668  L 19.6875 1.7708333333333326  C 19.687500000000004 1.6749131944444429  19.655029296875 1.5919053819444429  19.590087890625 1.5218098958333326  C 19.525146484375 1.4517144097222205  19.4482421875 1.4166666666666674  19.359375 1.4166666666666674  L 1.640625 1.4166666666666674  C 1.5517578125 1.4166666666666674  1.474853515625 1.4517144097222205  1.409912109375 1.5218098958333326  C 1.3449707031250002 1.5919053819444429  1.3125 1.6749131944444429  1.3125 1.7708333333333326  L 1.3125 15.229166666666668  C 1.3125 15.325086805555557  1.3449707031250002 15.408094618055557  1.409912109375 15.478190104166668  C 1.474853515625 15.548285590277777  1.5517578125 15.583333333333332  1.640625 15.583333333333332  L 5.25 15.583333333333332  L 5.25 14.520833333333332  C 5.25 14.417534722222223  5.28076171875 14.332682291666668  5.34228515625 14.266276041666668  C 5.40380859375 14.199869791666668  5.482421875000001 14.166666666666668  5.578125 14.166666666666668  L 6.234375 14.166666666666668  C 6.330078125 14.166666666666668  6.40869140625 14.199869791666668  6.47021484375 14.266276041666668  C 6.53173828125 14.332682291666668  6.5625 14.417534722222223  6.5625 14.520833333333332  L 6.5625 15.583333333333332  L 14.4375 15.583333333333332  L 14.4375 14.520833333333332  C 14.4375 14.417534722222223  14.46826171875 14.332682291666668  14.52978515625 14.266276041666668  C 14.59130859375 14.199869791666668  14.669921875 14.166666666666668  14.765625 14.166666666666668  L 15.421875 14.166666666666668  C 15.517578125000002 14.166666666666668  15.59619140625 14.199869791666668  15.65771484375 14.266276041666668  C 15.71923828125 14.332682291666668  15.75 14.417534722222223  15.75 14.520833333333332  L 15.75 15.583333333333332  L 19.359375 15.583333333333332  C 19.4482421875 15.583333333333332  19.525146484375 15.548285590277777  19.590087890625 15.478190104166668  Z M 20.51806640625 0.5201822916666673  C 20.83935546875 0.8669704861111103  21 1.2838541666666674  21 1.7708333333333326  L 21 15.229166666666668  C 21 15.716145833333332  20.83935546875 16.13302951388889  20.51806640625 16.479817708333332  C 20.19677734375 16.82660590277778  19.810546875 17  19.359375 17  L 1.640625 17  C 1.189453125 17  0.8032226562500001 16.82660590277778  0.48193359375 16.479817708333332  C 0.16064453125 16.13302951388889  0 15.716145833333332  0 15.229166666666668  L 0 1.7708333333333326  C 0 1.2838541666666674  0.16064453125 0.8669704861111103  0.48193359375 0.5201822916666673  C 0.8032226562500001 0.17339409722222054  1.189453125 0  1.640625 0  L 19.359375 0  C 19.810546875 0  20.19677734375 0.17339409722222054  20.51806640625 0.5201822916666673  Z " fill-rule="nonzero" fill="#d7d7d7" stroke="none" transform="matrix(1 0 0 1 485 255 )" />
  </g>
</svg>