<?xml version="1.0" encoding="utf-8"?>
<svg version="1.1" xmlns:xlink="http://www.w3.org/1999/xlink" width="350px" height="50px" xmlns="http://www.w3.org/2000/svg">
  <g transform="matrix(1 0 0 1 -475 -307 )">
    <path d="M 475.5 310  A 2.5 2.5 0 0 1 478 307.5 L 822 307.5  A 2.5 2.5 0 0 1 824.5 310 L 824.5 354  A 2.5 2.5 0 0 1 822 356.5 L 478 356.5  A 2.5 2.5 0 0 1 475.5 354 L 475.5 310  Z " fill-rule="nonzero" fill="#ffffff" stroke="none" />
    <path d="M 475.5 310  A 2.5 2.5 0 0 1 478 307.5 L 822 307.5  A 2.5 2.5 0 0 1 824.5 310 L 824.5 354  A 2.5 2.5 0 0 1 822 356.5 L 478 356.5  A 2.5 2.5 0 0 1 475.5 354 L 475.5 310  Z " stroke-width="1" stroke="#0079fe" fill="none" />
  </g>
</svg>