<?xml version="1.0" encoding="utf-8"?>
<svg version="1.1" xmlns:xlink="http://www.w3.org/1999/xlink" width="356px" height="56px" xmlns="http://www.w3.org/2000/svg">
  <defs>
    <filter x="472px" y="304px" width="356px" height="56px" filterUnits="userSpaceOnUse" id="filter15">
      <feOffset dx="0" dy="0" in="SourceAlpha" result="shadowOffsetInner" />
      <feGaussianBlur stdDeviation="1.5" in="shadowOffsetInner" result="shadowGaussian" />
      <feComposite in2="shadowGaussian" operator="atop" in="SourceAlpha" result="shadowComposite" />
      <feColorMatrix type="matrix" values="0 0 0 0 0  0 0 0 0 0.4745098039215686  0 0 0 0 0.996078431372549  0 0 0 0.8 0  " in="shadowComposite" />
    </filter>
    <g id="widget16">
      <path d="M 475.5 310  A 2.5 2.5 0 0 1 478 307.5 L 822 307.5  A 2.5 2.5 0 0 1 824.5 310 L 824.5 354  A 2.5 2.5 0 0 1 822 356.5 L 478 356.5  A 2.5 2.5 0 0 1 475.5 354 L 475.5 310  Z " fill-rule="nonzero" fill="#ffffff" stroke="none" />
      <path d="M 475.5 310  A 2.5 2.5 0 0 1 478 307.5 L 822 307.5  A 2.5 2.5 0 0 1 824.5 310 L 824.5 354  A 2.5 2.5 0 0 1 822 356.5 L 478 356.5  A 2.5 2.5 0 0 1 475.5 354 L 475.5 310  Z " stroke-width="1" stroke="#0079fe" fill="none" />
    </g>
  </defs>
  <g transform="matrix(1 0 0 1 -472 -304 )">
    <use xlink:href="#widget16" filter="url(#filter15)" />
    <use xlink:href="#widget16" />
  </g>
</svg>