<?xml version="1.0" encoding="utf-8"?>
<svg version="1.1" xmlns:xlink="http://www.w3.org/1999/xlink" width="27px" height="25px" xmlns="http://www.w3.org/2000/svg">
  <g transform="matrix(1 0 0 1 -650 -28 )">
    <path d="M 13.5 23.883928571428573  C 13.673076923076925 23.883928571428573  13.759615384615387 23.80952380952381  13.759615384615383 23.660714285714285  C 13.759615384615387 23.511904761904763  13.673076923076925 23.4375  13.5 23.4375  C 12.861778846153847 23.4375  12.312800480769234 23.239862351190474  11.853064903846153 22.844587053571427  C 11.393329326923078 22.44931175595238  11.163461538461538 21.977306547619047  11.163461538461538 21.42857142857143  C 11.163461538461538 21.279761904761905  11.076923076923078 21.205357142857142  10.903846153846153 21.205357142857142  C 10.730769230769232 21.205357142857142  10.644230769230768 21.279761904761905  10.644230769230768 21.42857142857143  C 10.644230769230768 22.10751488095238  10.922776442307693 22.68647693452381  11.479867788461538 23.165457589285715  C 12.036959134615385 23.64443824404762  12.71033653846154 23.883928571428573  13.5 23.883928571428573  Z M 7.269230769230769 8.035714285714285  C 7.269230769230769 12.983630952380953  5.830528846153847 16.85267857142857  2.953125 19.642857142857142  L 24.046875 19.642857142857142  C 21.169471153846153 16.85267857142857  19.73076923076923 12.983630952380953  19.73076923076923 8.035714285714285  C 19.73076923076923 7.561383928571427  19.600961538461537 7.073102678571427  19.341346153846153 6.570870535714285  C 19.08173076923077 6.068638392857142  18.708533653846153 5.5896577380952355  18.221754807692307 5.133928571428573  C 17.734975961538463 4.678199404761904  17.07782451923077 4.303850446428573  16.25030048076923 4.010881696428573  C 15.422776442307692 3.7179129464285725  14.506009615384617 3.5714285714285725  13.5 3.5714285714285725  C 12.493990384615385 3.5714285714285725  11.577223557692308 3.7179129464285725  10.749699519230768 4.010881696428573  C 9.922175480769232 4.303850446428573  9.265024038461538 4.678199404761904  8.778245192307692 5.133928571428573  C 8.291466346153847 5.5896577380952355  7.918269230769231 6.068638392857142  7.658653846153846 6.570870535714285  C 7.399038461538463 7.073102678571427  7.269230769230769 7.561383928571427  7.269230769230769 8.035714285714285  Z M 25.5234375 18.41517857142857  C 25.966947115384617 18.843005952380953  26.459134615384617 19.252232142857142  27 19.642857142857142  C 27.000000000000007 20.126488095238095  26.794471153846157 20.545014880952383  26.383413461538463 20.8984375  C 25.97235576923077 21.251860119047617  25.485576923076927 21.42857142857143  24.923076923076923 21.42857142857143  L 17.653846153846153 21.42857142857143  C 17.653846153846153 22.414434523809526  17.248197115384617 23.256138392857142  16.436899038461537 23.953683035714285  C 15.625600961538462 24.651227678571427  14.646634615384617 25  13.5 25  C 12.353365384615385 25  11.374399038461538 24.651227678571427  10.563100961538462 23.953683035714285  C 9.751802884615385 23.256138392857142  9.346153846153847 22.414434523809526  9.346153846153847 21.42857142857143  L 2.076923076923077 21.42857142857143  C 1.514423076923077 21.42857142857143  1.0276442307692308 21.251860119047617  0.6165865384615384 20.8984375  C 0.20552884615384623 20.545014880952383  0 20.126488095238095  0 19.642857142857142  C 0.5408653846153848 19.252232142857142  1.0330528846153848 18.843005952380953  1.4765625 18.41517857142857  C 1.9200721153846156 17.98735119047619  2.3798076923076925 17.431640625  2.855769230769231 16.748046875  C 3.3317307692307696 16.064453125  3.7346754807692313 15.32738095238095  4.064603365384616 14.536830357142858  C 4.394531250000001 13.746279761904761  4.6649639423076925 12.788318452380953  4.8759014423076925 11.662946428571427  C 5.0868389423076925 10.537574404761903  5.1923076923076925 9.32849702380952  5.1923076923076925 8.035714285714285  C 5.1923076923076925 6.622023809523808  5.8251201923076925 5.308314732142858  7.090745192307692 4.094587053571427  C 8.356370192307692 2.880859375  10.016826923076923 2.1437872023809508  12.072115384615385 1.883370535714285  C 11.985576923076923 1.706659226190474  11.942307692307692 1.525297619047619  11.942307692307692 1.339285714285715  C 11.942307692307692 0.9672619047619041  12.09375 0.6510416666666657  12.396634615384615 0.390625  C 12.699519230769232 0.13020833333333426  13.067307692307692 0  13.5 0  C 13.932692307692308 0  14.300480769230772 0.13020833333333426  14.603365384615383 0.390625  C 14.906250000000002 0.6510416666666657  15.057692307692308 0.9672619047619041  15.057692307692308 1.339285714285715  C 15.057692307692308 1.525297619047619  15.014423076923077 1.706659226190474  14.927884615384617 1.883370535714285  C 16.98317307692308 2.1437872023809508  18.643629807692307 2.880859375  19.909254807692307 4.094587053571427  C 21.174879807692307 5.308314732142858  21.807692307692307 6.622023809523808  21.807692307692307 8.035714285714285  C 21.807692307692307 9.32849702380952  21.913161057692307 10.537574404761903  22.124098557692307 11.662946428571427  C 22.335036057692307 12.788318452380953  22.60546875 13.746279761904761  22.935396634615383 14.536830357142858  C 23.265324519230774 15.32738095238095  23.66826923076923 16.064453125  24.14423076923077 16.748046875  C 24.62019230769231 17.431640625  25.07992788461539 17.98735119047619  25.5234375 18.41517857142857  Z " fill-rule="nonzero" fill="#e4e4e4" stroke="none" transform="matrix(1 0 0 1 650 28 )" />
  </g>
</svg>