<?xml version="1.0" encoding="utf-8"?>
<svg version="1.1" xmlns:xlink="http://www.w3.org/1999/xlink" width="61px" height="44px" xmlns="http://www.w3.org/2000/svg">
  <g transform="matrix(1 0 0 1 -50 -18 )">
    <path d="M 60.12 0.27999999999999936  L 60.12 8.86  C 60.120000000000005 11.420000000000002  59.60000000000001 13.809999999999999  58.559999999999995 16.029999999999998  C 57.52 18.25  56.1 20.14  54.3 21.699999999999996  C 56.1 23.300000000000004  57.52 25.200000000000003  58.559999999999995 27.4  C 59.60000000000001 29.6  60.120000000000005 32  60.12 34.6  L 60.12 43.18  C 58.92 43.18000000000001  57.800000000000004 42.96000000000001  56.76 42.519999999999996  C 55.720000000000006 42.080000000000005  54.809999999999995 41.47  54.03 40.69  C 53.25 39.91  52.64 39  52.199999999999996 37.96  C 51.760000000000005 36.92  51.54 35.8  51.54 34.6  C 51.54 33.4  51.32 32.28  50.879999999999995 31.239999999999995  C 50.440000000000005 30.200000000000003  49.830000000000005 29.29  49.05 28.509999999999998  C 48.27 27.729999999999997  47.36000000000001 27.119999999999997  46.32 26.68  C 45.28 26.240000000000002  44.16 26.019999999999996  42.96 26.019999999999996  C 41.76 26.019999999999996  40.64 26.240000000000002  39.6 26.68  C 38.56 27.119999999999997  37.65 27.729999999999997  36.87 28.509999999999998  C 36.089999999999996 29.29  35.480000000000004 30.200000000000003  35.04 31.239999999999995  C 34.6 32.28  34.379999999999995 33.4  34.379999999999995 34.6  C 34.379999999999995 35.8  34.160000000000004 36.92  33.72 37.96  C 33.28 39  32.67 39.91  31.89 40.69  C 31.11 41.47  30.200000000000003 42.080000000000005  29.16 42.519999999999996  C 28.12 42.96000000000001  27 43.18000000000001  25.8 43.18  L 25.8 34.6  C 25.8 32  26.32 29.6  27.36 27.4  C 28.400000000000002 25.200000000000003  29.82 23.300000000000004  31.619999999999994 21.699999999999996  C 29.82 20.14  28.400000000000002 18.25  27.36 16.029999999999998  C 26.32 13.809999999999999  25.8 11.420000000000002  25.8 8.86  L 25.8 0.27999999999999936  C 27 0.27999999999999936  28.12 0.5  29.16 0.9399999999999995  C 30.200000000000003 1.3800000000000026  31.11 1.9900000000000022  31.89 2.7699999999999996  C 32.67 3.5500000000000007  33.28 4.460000000000001  33.72 5.5  C 34.160000000000004 6.540000000000003  34.379999999999995 7.66  34.379999999999995 8.86  C 34.379999999999995 10.059999999999999  34.6 11.18  35.04 12.219999999999999  C 35.480000000000004 13.260000000000002  36.089999999999996 14.169999999999998  36.87 14.950000000000001  C 37.65 15.729999999999999  38.56 16.34  39.6 16.779999999999998  C 40.64 17.220000000000002  41.76 17.44  42.96 17.439999999999998  C 44.16 17.44  45.28 17.220000000000002  46.32 16.779999999999998  C 47.36000000000001 16.34  48.27 15.729999999999999  49.05 14.950000000000001  C 49.830000000000005 14.169999999999998  50.440000000000005 13.260000000000002  50.879999999999995 12.219999999999999  C 51.32 11.18  51.54 10.059999999999999  51.54 8.86  C 51.54 7.66  51.760000000000005 6.540000000000003  52.199999999999996 5.5  C 52.64 4.460000000000001  53.25 3.5500000000000007  54.03 2.7699999999999996  C 54.809999999999995 1.9900000000000022  55.720000000000006 1.3800000000000026  56.76 0.9399999999999995  C 57.800000000000004 0.5  58.92 0.27999999999999936  60.12 0.27999999999999936  Z M 13.799999999999999 33.94  C 14.84 34.38  15.959999999999999 34.6  17.16 34.6  C 18.96 34.6  20.57 34.11  21.99 33.129999999999995  C 23.410000000000004 32.150000000000006  24.44 30.9  25.08 29.379999999999995  C 24.599999999999998 31.020000000000003  24.36 32.76  24.36 34.6  L 24.36 41.62  C 22.08 42.660000000000004  19.68 43.18000000000001  17.16 43.18  C 14.8 43.18000000000001  12.58 42.730000000000004  10.5 41.83  C 8.42 40.93000000000001  6.6000000000000005 39.7  5.04 38.14  C 3.48 36.580000000000005  2.25 34.760000000000005  1.3499999999999999 32.68  C 0.44999999999999996 30.599999999999998  0 28.380000000000003  0 26.019999999999996  L 0 0.27999999999999936  C 1.2000000000000002 0.27999999999999936  2.3200000000000003 0.5  3.36 0.9399999999999995  C 4.4 1.3800000000000026  5.31 1.9900000000000022  6.09 2.7699999999999996  C 6.87 3.5500000000000007  7.48 4.460000000000001  7.920000000000001 5.5  C 8.36 6.540000000000003  8.58 7.66  9 8.86  L 9 26.019999999999996  C 8.58 27.22  8.8 28.340000000000003  9.24 29.379999999999995  C 9.68 30.42  10.29 31.33  11.07 32.11  C 11.850000000000001 32.89  12.76 33.5  13.799999999999999 33.94  Z M 25.8 26.019999999999996  L 25.8 16.48  C 26.64 18.52  27.8 20.34  29.279999999999998 21.939999999999998  C 27.599999999999998 23.82  26.34 25.880000000000003  25.5 28.119999999999997  C 25.700000000000003 27.4  25.8 26.700000000000003  25.8 26.019999999999996  Z " fill-rule="nonzero" fill="#ffffff" stroke="none" transform="matrix(1 0 0 1 50 18 )" />
  </g>
</svg>